<svg xmlns="http://www.w3.org/2000/svg" width="60.495" height="60.495" viewBox="0 0 60.495 60.495"><defs><style>.a{fill:#313a61;}.b,.c{fill:#fff;}.b{stroke-linecap:square;}.d,.e{stroke:none;}.e{fill:#93a5ff;}</style></defs><rect class="a" width="60.495" height="60.495" rx="5" transform="translate(0 0)"/><g transform="translate(10.467 10.576)"><g class="b" transform="translate(-2 -2)"><path class="d" d="M 3.975115776062012 41.45223617553711 C 2.913605690002441 41.45223617553711 2.049995899200439 40.58862686157227 2.049995899200439 39.52711486816406 L 2.049995899200439 3.975115776062012 C 2.049995899200439 2.913605690002441 2.913605690002441 2.049995899200439 3.975115776062012 2.049995899200439 L 39.52711486816406 2.049995899200439 C 40.04133605957031 2.049995899200439 40.52476501464844 2.250245809555054 40.88837432861328 2.613845825195313 C 41.25198745727539 2.977455854415894 41.45222473144531 3.460895776748657 41.45222473144531 3.975115776062012 L 41.45223617553711 39.52711486816406 C 41.45223617553711 40.04132461547852 41.25198745727539 40.52476501464844 40.88837432861328 40.88837432861328 C 40.52476501464844 41.25198745727539 40.04132461547852 41.45222473144531 39.52711486816406 41.45222473144531 L 3.975115776062012 41.45223617553711 Z M 3.266735792160034 8.533705711364746 L 3.266735792160034 8.583705902099609 L 3.266735792160034 39.52711486816406 C 3.266735792160034 39.91771697998047 3.584515810012817 40.2354850769043 3.975115776062012 40.2354850769043 L 39.52711486816406 40.2354850769043 C 39.91771697998047 40.2354850769043 40.2354850769043 39.91771697998047 40.2354850769043 39.52711486816406 L 40.2354850769043 8.583705902099609 L 40.2354850769043 8.533705711364746 L 40.18548583984375 8.533705711364746 L 3.316735744476318 8.533705711364746 L 3.266735792160034 8.533705711364746 Z M 3.975115776062012 3.266735792160034 C 3.584515810012817 3.266735792160034 3.266735792160034 3.584515810012817 3.266735792160034 3.975115776062012 L 3.266735792160034 7.266965866088867 L 3.266735792160034 7.316965579986572 L 3.316735744476318 7.316965579986572 L 40.18548583984375 7.316965579986572 L 40.2354850769043 7.316965579986572 L 40.2354850769043 7.266965866088867 L 40.2354850769043 3.975115776062012 C 40.2354850769043 3.584515810012817 39.91771697998047 3.266735792160034 39.52711486816406 3.266735792160034 L 3.975115776062012 3.266735792160034 Z"/><path class="e" d="M 3.975105285644531 2.099994659423828 C 2.941165924072266 2.099994659423828 2.099994659423828 2.941165924072266 2.099994659423828 3.975105285644531 L 2.099994659423828 39.52711486816406 C 2.099994659423828 40.56105422973633 2.941165924072266 41.40223693847656 3.975105285644531 41.40223693847656 L 39.52713775634766 41.40222549438477 C 40.56106567382813 41.40222549438477 41.40223693847656 40.56105422973633 41.40223693847656 39.52711486816406 L 41.40222549438477 3.975105285644531 C 41.40222549438477 3.474246978759766 41.20718383789063 3.003364562988281 40.85302734375 2.649204254150391 C 40.49885559082031 2.2950439453125 40.02797698974609 2.099994659423828 39.52711486816406 2.099994659423828 L 3.975105285644531 2.099994659423828 M 40.28548431396484 7.366966247558594 L 40.18548583984375 7.366966247558594 L 3.316745758056641 7.366966247558594 L 3.216747283935547 7.366966247558594 L 3.216747283935547 7.266963958740234 L 3.216747283935547 3.975105285644531 C 3.216747283935547 3.55694580078125 3.55694580078125 3.216747283935547 3.975105285644531 3.216747283935547 L 39.52711486816406 3.216747283935547 C 39.94528579711914 3.216747283935547 40.28548431396484 3.55694580078125 40.28548431396484 3.975105285644531 L 40.28548431396484 7.266963958740234 L 40.28548431396484 7.366966247558594 M 39.52711486816406 40.28548431396484 L 3.975105285644531 40.28548431396484 C 3.55694580078125 40.28548431396484 3.216747283935547 39.94528579711914 3.216747283935547 39.52711486816406 L 3.216747283935547 8.583705902099609 L 3.216747283935547 8.483707427978516 L 3.316745758056641 8.483707427978516 L 40.18548583984375 8.483707427978516 L 40.28548431396484 8.483707427978516 L 40.28548431396484 8.583705902099609 L 40.28548431396484 39.52711486816406 C 40.28548431396484 39.94528579711914 39.94528579711914 40.28548431396484 39.52711486816406 40.28548431396484 M 3.975105285644531 1.999996185302734 L 39.52711486816406 1.999996185302734 C 40.61793518066406 1.999996185302734 41.50223541259766 2.884284973144531 41.50222778320313 3.975105285644531 L 41.50223541259766 39.52711486816406 C 41.50223541259766 40.61793518066406 40.61793518066406 41.50223541259766 39.52711486816406 41.50222778320313 L 3.975105285644531 41.50223541259766 C 2.884284973144531 41.50223541259766 1.999996185302734 40.61793518066406 1.999996185302734 39.52711486816406 L 1.999996185302734 3.975105285644531 C 1.999996185302734 2.884284973144531 2.884284973144531 1.999996185302734 3.975105285644531 1.999996185302734 Z M 40.18548583984375 7.266963958740234 L 40.18548583984375 3.975105285644531 C 40.18548583984375 3.611507415771484 39.89072418212891 3.316745758056641 39.52711486816406 3.316745758056641 L 3.975105285644531 3.316745758056641 C 3.611507415771484 3.316745758056641 3.316745758056641 3.611507415771484 3.316745758056641 3.975105285644531 L 3.316745758056641 7.266963958740234 L 40.18548583984375 7.266963958740234 Z M 39.52711486816406 40.18548583984375 C 39.89072418212891 40.18548583984375 40.18548583984375 39.89072418212891 40.18548583984375 39.52711486816406 L 40.18548583984375 8.583705902099609 L 3.316745758056641 8.583705902099609 L 3.316745758056641 39.52711486816406 C 3.316745758056641 39.89072418212891 3.611507415771484 40.18548583984375 3.975105285644531 40.18548583984375 L 39.52711486816406 40.18548583984375 Z"/></g><path class="c" d="M6.191,6.2A.68.68,0,0,0,6,6.663a.658.658,0,0,0,.053.25.614.614,0,0,0,.138.217A.661.661,0,0,0,7.126,6.2.689.689,0,0,0,6.191,6.2Z" transform="translate(-3.367 -3.371)"/><path class="c" d="M10.191,6.189A.693.693,0,0,0,10,6.656a.892.892,0,0,0,.013.132.419.419,0,0,0,.04.119.5.5,0,0,0,.059.119,1.038,1.038,0,0,0,.079.1.668.668,0,0,0,.935,0l.079-.1a.5.5,0,0,0,.059-.119.419.419,0,0,0,.04-.119.892.892,0,0,0,.013-.132.658.658,0,0,0-1.126-.467Z" transform="translate(-4.733 -3.365)"/><path class="c" d="M14.191,6.2a.661.661,0,1,0,.935,0A.689.689,0,0,0,14.191,6.2Z" transform="translate(-6.1 -3.371)"/><path class="c" d="M40.235,14H6v9.217H40.235Zm-1.317,7.9H7.317V15.317h31.6Z" transform="translate(-3.367 -6.1)"/><path class="c" d="M17.851,30H6V48.434H17.851ZM16.534,47.118H7.317v-15.8h9.217Z" transform="translate(-3.367 -11.566)"/><path class="c" d="M26,38.559H47.068V30H26Zm1.317-7.242H45.751v5.925H27.317Z" transform="translate(-10.199 -11.566)"/><path class="c" d="M26,53.559H47.068V45H26Zm1.317-7.242H45.751v5.925H27.317Z" transform="translate(-10.199 -16.69)"/></g></svg>