<svg xmlns="http://www.w3.org/2000/svg" width="27.995" height="45.12" viewBox="0 0 27.995 45.12"><defs><style>.a{fill:#fff;stroke:#424d83;}</style></defs><g transform="translate(0.5 0.544)"><path class="a" d="M28,38.856a10.2,10.2,0,0,0,3.009,7.265l.847.847.847-.847a10.2,10.2,0,0,0,3.009-7.265,3.856,3.856,0,1,0-7.713,0Zm5.785,0a8.283,8.283,0,0,1-1.928,5.336,8.283,8.283,0,0,1-1.928-5.336,1.928,1.928,0,0,1,3.856,0Z" transform="translate(-18.359 -3.099)"/><path class="a" d="M31.877,2.075l-.38-.163-.38.163A12.086,12.086,0,0,0,23.785,13.2v3.561A9.409,9.409,0,0,0,18,25.448v2.58h.964v3.856h5.785V28.028h2.892v3.856h7.713V28.028h2.892v3.856h5.785V28.028H45v-2.58a9.409,9.409,0,0,0-5.785-8.691V13.2A12.086,12.086,0,0,0,31.877,2.075ZM19.928,25.448a7.487,7.487,0,0,1,3.856-6.556V26.1H19.928Zm2.892,4.508H20.892V28.028h1.928Zm10.605,0H29.569V28.028h3.856ZM37.282,26.1H25.713V13.2A10.159,10.159,0,0,1,31.5,4.021,10.159,10.159,0,0,1,37.282,13.2ZM42.1,29.956H40.175V28.028H42.1Zm.964-4.508V26.1H39.21V18.894A7.487,7.487,0,0,1,43.067,25.448Z" transform="translate(-18 -1.912)"/><path class="a" d="M19,37.892a5.657,5.657,0,0,0,1.646,3.973l1.247,1.247,1.247-1.247a5.657,5.657,0,0,0,1.646-3.973,2.892,2.892,0,1,0-5.785,0Zm3.856,0a3.717,3.717,0,0,1-.964,2.487,3.717,3.717,0,0,1-.964-2.487.964.964,0,1,1,1.928,0Z" transform="translate(-18.036 -3.099)"/><path class="a" d="M39,37.892a5.657,5.657,0,0,0,1.646,3.973l1.247,1.247,1.247-1.247a5.657,5.657,0,0,0,1.646-3.973,2.892,2.892,0,1,0-5.785,0Zm3.856,0a3.717,3.717,0,0,1-.964,2.487,3.717,3.717,0,0,1-.964-2.487.964.964,0,1,1,1.928,0Z" transform="translate(-18.754 -3.099)"/><path class="a" d="M31.856,10a3.856,3.856,0,1,0,3.856,3.856A3.856,3.856,0,0,0,31.856,10Zm0,5.785a1.928,1.928,0,1,1,1.928-1.928A1.928,1.928,0,0,1,31.856,15.785Z" transform="translate(-18.359 -2.202)"/></g></svg>