<svg xmlns="http://www.w3.org/2000/svg" width="263.263" height="142.122" viewBox="0 0 263.263 142.122"><defs><style>.a{fill:#f1f1f1;mix-blend-mode:multiply;isolation:isolate;}.b{fill:none;stroke:#707070;}.c{fill:#fff;}</style></defs><g transform="translate(1853.638 -1662.421)"><path class="a" d="M0,0,87.275-8.074,63.1-.218l5.425,9.6-93.116,8.9L-.73,6.158Z" transform="matrix(0.966, 0.259, -0.259, 0.966, -1734.468, 1742.186)"/><path class="a" d="M0,0,87.275-8.074,63.1-.218l5.425,9.6-93.116,8.9L-.73,6.158Z" transform="matrix(0.966, 0.259, -0.259, 0.966, -1802.163, 1764.288)"/><line class="b" x2="94" y2="13" transform="translate(-1755.791 1784.651) rotate(-2)"/><line class="b" x2="93" y2="11" transform="translate(-1683.778 1755.119) rotate(-2)"/><line class="b" x2="70" y2="14" transform="translate(-1795.443 1738.006) rotate(-2)"/><line class="b" x2="56" y2="13" transform="translate(-1789.539 1763.816) rotate(-2)"/><line class="b" x2="52" y2="13" transform="translate(-1853.5 1766.049) rotate(-2)"/><line class="b" x2="61" y2="11" transform="translate(-1734.655 1730.88) rotate(-2)"/><line class="b" x2="15" y2="3" transform="translate(-1712.376 1767.125) rotate(-2)"/><line class="b" x2="25" y2="4" transform="translate(-1694.283 1769.495) rotate(-2)"/><g transform="translate(-2002.631 1472.231) rotate(-3)"><path d="M275.279,235.312a11.643,11.643,0,0,0-1.394-5.983c-.89-1.8-2.006-3.495-2.952-5.273a38.2,38.2,0,0,1-2.389-4.938,7.165,7.165,0,0,1,1.608-7.463c6.864-7.948,20.418-5.685,24.392,4.013a13.885,13.885,0,0,1,.676,1.608,8.111,8.111,0,0,0,3.962,5.512c2.122,1.192,2.367,3.573,1.74,5.879a26.866,26.866,0,0,1-4.874,8.91c-2.363,3.155-4.84,6.225-7.314,9.393.333.3.666.571.976.87a4.39,4.39,0,0,1,.637,5.537c-.836,1.277-.854,2.5.377,3.33a60.41,60.41,0,0,0,6.175,3.483c.239.124,1.044-.27,1.164-.586.65-1.7,1.3-3.348-.2-5.11-1.1-1.284-.674-2.531.852-3.114a2.1,2.1,0,0,0,1.485-1.939,5.762,5.762,0,0,1,.715-1.856,2.249,2.249,0,0,1,2.71-1.259c1.392.473,2.908.287,4.153.709,1.609.545,2.912,1.986,4.486,2.843.233.126.314.631.363.975a6.978,6.978,0,0,1-3.178,6.313,2.535,2.535,0,0,0-.8,1.157c-1.344,2.97-2.464,6.063-4.041,8.9-1.607,2.893-4.4,3.668-7.393,2.335a24.908,24.908,0,0,1-4.092-2.517,34.181,34.181,0,0,1-2.746-2.437,20.8,20.8,0,0,1-4.415,10.963,26.339,26.339,0,0,1-8.3,7.939c1.373,3.487,2.694,6.843,4.055,10.3.675-.071,1.464-.217,2.255-.227,1.346-.015,1.9.862,1.257,2.038a6.038,6.038,0,0,1-1.377,1.622,34.24,34.24,0,0,1-9.506,5.49c-1.594.648-2.356.215-2.782-1.425a37.16,37.16,0,0,1-.961-4.191c-.586-4.218-2.621-7.776-4.975-11.188a2.89,2.89,0,0,0-1.5-.866c-1.1-.337-2.245-.552-3.608-.875-.31.806-.677,1.74-1.027,2.681a17.094,17.094,0,0,1-4.121,7c-2.361,2.173-4.922,2.713-7.787,1.28-2.109-1.056-4.05-2.444-6.1-3.621a2.238,2.238,0,0,0-1.388-.158,23.146,23.146,0,0,1-2.967.664,1.45,1.45,0,0,1-1.528-2.069,8.444,8.444,0,0,1,1.479-2.977,28.254,28.254,0,0,1,4.1-3.848c1.744-1.329,2.91-1.14,4.535.346.595.545,1.2,1.081,1.769,1.652s1.088,1.168,1.78,1.918l3.351-3.5c-1.084-.155-1.815-.245-2.543-.367-3.593-.6-8.462-4-8.245-9.059a6.286,6.286,0,0,1,.412-1.435,4.386,4.386,0,0,1,1.2.85,9.223,9.223,0,0,0,4.927,3.542,1.189,1.189,0,0,0,.994-.227.979.979,0,0,0-.013-.912c-3.816-6.093-4.268-12.7-3.052-19.573a26.423,26.423,0,0,1,3.287-9.736c3.447-5.491,8.476-8.193,14.826-8.646a17.406,17.406,0,0,1,3.224.02c1.225.141,2.068.074,2.488-1.39.337-1.173,2.108-1.78,3.7-1.582C274.263,235.083,274.693,235.2,275.279,235.312Zm3.668,17.489c1.647-.743,3.223-1.44,4.784-2.17a2.091,2.091,0,0,0,.7-.6c3.819-4.8,7.725-9.534,11.39-14.449a39.073,39.073,0,0,0,3.6-6.582c.91-1.9.625-4.235-.848-5.01-2.641-1.392-3.733-3.644-4.443-6.3a12.76,12.76,0,0,0-.9-2.1,12.079,12.079,0,0,0-7.1-6.566c-5.26-1.818-10.285-1.645-14.639,2.317a6.635,6.635,0,0,0-1.714,7.845,62.784,62.784,0,0,0,3.642,6.708c3.013,4.913,4.045,10.082,2.409,15.694a1.766,1.766,0,0,0,.039,1.166A27.453,27.453,0,0,1,278.947,252.8Zm-18.191,27.342a19.6,19.6,0,0,1,2.848,1.936,27.115,27.115,0,0,1,7.577,12.77c.49,1.908.874,3.842,1.33,5.758.162.682.414,1.421,1.338.9q4.784-2.692,9.519-5.473c.358-.211.552-.7.821-1.063a4.269,4.269,0,0,0-2.132.033c-1.166.33-1.637.046-2.035-1.23-1.152-3.692-1.912-7.583-4.656-10.6a20.682,20.682,0,0,0-11.322-6.766,1.466,1.466,0,0,0-1.237.331C262.045,277.831,261.419,279.016,260.756,280.143Zm6.216-10.155a5.536,5.536,0,0,1,.244,1.6c-.134.942.423,1.1,1.088,1.125a1.419,1.419,0,0,0,1.6-1.442c.058-.723.012-1.454.012-2.18l.253-.062.9,2.369a2.442,2.442,0,0,0,.179-3.5,28.61,28.61,0,0,0-2.483-2.816,10.264,10.264,0,0,1-2.812-5.542,13.141,13.141,0,0,1,.2-2.712c.543.955.759,1.911,1.225,2.056,2.43.755,4.911,1.371,7.4,1.895a1.944,1.944,0,0,0,2.523-1.427,2.039,2.039,0,0,0-1.427-2.748,83.383,83.383,0,0,0-8.565-2.15,13.393,13.393,0,0,0-7.686.352c-1.909.791-2.322,1.468-2.08,3.507a21.341,21.341,0,0,0,5.351,11.374c.392.462.725.974,1.217,1.643h-1.275a1.448,1.448,0,0,0,1.589,1.647C266.5,273.053,266.341,271.3,266.972,269.988Zm34.285-19.527c.788-.041,1.409-.125,2.021-.091a4.167,4.167,0,0,1,1.948.33,2.78,2.78,0,0,1,1.308,1.726c.05,1.369-2.124,2.806-3.738,2.42a20.8,20.8,0,0,1,1.857-1.606,5.38,5.38,0,0,0,.737-1.019c-.353-.216-.723-.64-1.056-.612a21.448,21.448,0,0,0-4.184.612c-1.889.55-1.964.906-.632,2.423a2.569,2.569,0,0,1,.6,2.721c-.479,1.393-1,2.778-1.607,4.117a10.591,10.591,0,0,1-1.264,1.751l-.272-.162c.079-.418.158-.837.217-1.149l-6.471-3.34c0,1.213-.03,2.459.017,3.7a1.667,1.667,0,0,0,.385,1.1,44.619,44.619,0,0,0,5.778,4.743c2.53,1.533,4.373,1.163,6.146-.884,2.507-2.9,3.492-6.568,4.813-9.763l-1.4-1.661c3.25.495,3.946.068,4.8-3.013a6.715,6.715,0,0,0,.257-1.18c.1-1.154-.648-1.881-1.739-1.514s-1.336-.015-1.427-1c-.1-1.041-.827-1.409-1.823-1.006-.409.165-.789.4-1.183.6l.062-.328c-.849-.285-1.782-.939-2.529-.771C301.682,247.882,301.4,249.132,301.257,250.461Zm-42.046,34.07c-.883-.237-1.319-.326-1.733-.472a10.483,10.483,0,0,1-1.226-.536c-1.561-.791-2.014-.569-3.087.888a35.316,35.316,0,0,1-3.2,3.574c-.6.62-1.212.518-1.83-.164-1.081-1.192-2.256-2.3-3.386-3.448a2.039,2.039,0,0,0-2.9-.3,12.875,12.875,0,0,0-4.5,4.7,16.044,16.044,0,0,0-.626,1.83c2.206.37,3.464-.35,3.6-2.111a8.377,8.377,0,0,1,1.337,1.216c1.479,2.128,3.7,3.2,5.939,4.228,3.372,1.548,5.881,1.032,7.947-2.065A63.745,63.745,0,0,0,259.211,284.531ZM247.23,256.4c.915-.328,1.579-.579,2.252-.806,2.165-.735,3.25-.286,3.918,1.891a58.436,58.436,0,0,1,1.561,6.384c.367,1.964-1.84,5.96-3.693,6.722a13.193,13.193,0,0,1-2.826.507c.313,1.327.336,1.431,1.19,1.247A3.791,3.791,0,0,1,253.715,274c.433.563.9,1.1,1.415,1.739l1.163-.587c-2.164-2.07-2.366-2.964-1.063-5.467.855-1.643,1.861-3.208,2.884-4.952-.422-.72-.513-2.006-1.954-2.307-.293-.062-.584-.671-.675-1.073-.464-2.053-.879-4.116-1.276-6.182a2.646,2.646,0,0,1,1.079-2.975,24.372,24.372,0,0,1,4.66-2.3c1.877-.631,2.609-.1,3.069,1.849.276,1.166.911,1.374,1.962,1.068-.162-.855-.38-1.634-.448-2.426-.243-2.817.819-3.978,3.6-4.093,1-.041,1.989-.182,3.148-.292l-.83-2.072a15.4,15.4,0,0,1-3.35,1.686,9.986,9.986,0,0,1-3.865.006c-3.155-.571-3.9-1.758-3.417-4.986a6.736,6.736,0,0,0,0-.816l-3.169,1.3a6.666,6.666,0,0,1,2.628,5.2c.1,1.847-.487,2.653-2.129,3.487a14.1,14.1,0,0,0-3.607,2.274c-1.727,1.711-3.243,3.538-5.95,1.412C247.461,254.561,247.363,255.346,247.23,256.4Zm-.439,5.128-.238.041c.4,2.509.768,5.025,1.232,7.522a1.444,1.444,0,0,0,.921.887c2.694.655,6.143-2.9,5.6-5.852-.429-2.326-1.1-4.607-1.645-6.912a1.545,1.545,0,0,0-1.9-1.253c-2.886.242-3.735,1.1-3.886,3.959Q246.833,260.722,246.792,261.527Zm25.94,5.973c3.854-2.5,7.1-5.422,8.737-9.768a4.924,4.924,0,0,1,3.925-3.425c.659-.125,1.3-.317,1.961-.456a2.7,2.7,0,0,0,2.289-2.167,3.229,3.229,0,0,0-1.106-3.26,1.071,1.071,0,0,0-1.013-.12,23.2,23.2,0,0,0-1.774,2.022l1.531.511a3.185,3.185,0,0,1-1.387.633,12.058,12.058,0,0,0-3.1.81c-3.67,2.127-4.819,2.211-4.375,6.214.231,2.081-1.26,3.391-3.389,3.478a2.791,2.791,0,0,0-1.493.351c-1.063.8-2.03,1.724-3.03,2.6Zm-1.919,5.38c1.332,2.454,7.721,5.247,10.132,5.825a.858.858,0,0,0,.71-.153c1.09-1.191,2.141-2.418,3.359-3.811a35.392,35.392,0,0,1-10.582-5.991c-.843-.679-1.361-.409-1.308.642C273.211,271.115,272.656,272.366,270.813,272.879Zm-14.82-31.352c-3.972,2.6-6.336,6.324-7.994,10.574a1.048,1.048,0,0,0,.009.844,2.671,2.671,0,0,0,3.45.19,17.036,17.036,0,0,1,5.832-4.2,2.323,2.323,0,0,0,1.2-1.283A5.782,5.782,0,0,0,255.992,241.528Zm18.838-1.08.256-.068c.11-.923.252-1.845.31-2.772a1,1,0,0,0-.348-.771c-1.639-1.1-3.963-.559-4.163,1.319a7.1,7.1,0,0,0-.118,2.38c.406,1.59,1.082,3.11,1.562,4.684.914,3,2.872,5.771,1.864,9.234l3.045,1.3a9.535,9.535,0,0,0-.065-5.983c-.72-2.256-1.66-4.441-2.414-6.687-.459-1.366-.747-2.791-1.112-4.19l.443-.105Zm13.387,28.509c-1.826-.625-3.327-1.064-4.768-1.651-1.488-.605-2.9-1.385-4.381-2.018a1.613,1.613,0,0,0-1.3-.053c-1.107.818-2.118,1.766-3.166,2.667a23.543,23.543,0,0,0,9.88,5.821,1.559,1.559,0,0,0,1.339-.387C286.683,271.951,287.4,270.479,288.217,268.957Zm-26.928.438c-.284.58-.412.8-.5,1.034-2.16,5.581-3.845,6.758-9.727,6.882a1.146,1.146,0,0,0-.847.7,2.912,2.912,0,0,0,1.334,3.006,6,6,0,0,0,6.772-.442,13.593,13.593,0,0,0,3.923-6.29,2.475,2.475,0,0,0-.033-1.131c-.138-.769-.321-1.531-.5-2.292C261.618,270.479,261.494,270.105,261.29,269.395ZM266.6,239.15c-.714,0-1.3-.042-1.875.008-1.068.1-2.138.21-3.194.39a1.6,1.6,0,0,0-1,.535,2.912,2.912,0,0,0,1.424,4.437,15.755,15.755,0,0,0,4.863.539c1.957-.069,2.994-1.229,2.949-2.8-.076-2.684-.267-2.886-2.9-3.084C266.739,239.165,266.6,239.15,266.6,239.15Zm6.638,15.005c.689-2.858-1.025-4.946-1.757-7.271-1.249-.022-2.5-.047-3.747-.066-.179,0-.407-.048-.528.04-.643.467-1.7.9-1.795,1.476a15.621,15.621,0,0,0,.187,4.047c.026.24.458.572.746.625C268.586,253.413,270.836,253.762,273.241,254.155Zm5.274,10.287c3.328,1.387,6.276,3.23,9.943,3.613q.467-2.492.9-4.782c-1.844-.39-3.5-.723-5.155-1.1-1.131-.256-2.447-1.07-3.319-.724C279.928,261.831,279.392,263.258,278.515,264.442Zm2.258,15.159c-.967-.356-1.55-.567-2.132-.787a19.109,19.109,0,0,1-7.374-4.5c-.553-.583-.95-1.163-2-.775-1.016.374-1.648.872-1.619,1.942a1.43,1.43,0,0,0,.569,1.079,27.412,27.412,0,0,1,7.778,5.407c.212.221.782.406.979.282C278.193,281.473,279.356,280.605,280.773,279.6Zm.571-19.046c3.35,1.438,6.471,2.022,8.186,1.492-.1-1.28-.2-2.6-.283-3.77l-6.035-1.27c-.481.884-.994,1.822-1.5,2.763C281.59,260,281.491,260.24,281.344,260.556Zm-18.819-7.784c.106-2.419-.755-3.215-2.923-2.377a14.309,14.309,0,0,0-3.978,2.388,3.05,3.05,0,0,0-.776,2.377c.255,1.993.789,3.949,1.242,5.914a4.271,4.271,0,0,0,.451.905C255.44,254.642,256.486,254.155,262.525,252.772Zm-5.654,21.8c2.045-1.511,2.679-3.759,3.145-5.939.171-.794-.8-1.834-1.371-3a11.827,11.827,0,0,0-1.091,1.354c-.63,1.126-1.225,2.273-1.8,3.429C254.79,272.364,254.988,273.11,256.871,274.572Zm-6.585,7.414c-.442-.951-.892-1.943-1.366-2.924a1.274,1.274,0,0,0-.458-.583c-1.6-.811-3.218-1.588-4.792-2.357C244.022,278.639,247.083,281.333,250.286,281.986Zm3.82-6.112c-1.142-2.723-2.521-3.489-4.923-2.733C250.769,276.227,251.757,276.776,254.106,275.874Zm29.776-19.8.019.614,5.215.829c-.208-1.124-.341-1.847-.507-2.746Zm-11.551,5.737c-2.116-1.2-2.581-1.131-4.014.569l1.419,1.9Zm-14.8,21.18a4.775,4.775,0,0,0,4.482-.855C260.155,280.567,259.7,280.653,257.531,282.995Zm9.135-9.5c-.8,1.1-2.8-.213-3.306,1.685C266.443,275.918,266.68,275.808,266.667,273.5Z" transform="translate(0)"/><path class="c" d="M284.951,252.995a27.453,27.453,0,0,0-3.082-10.038,1.766,1.766,0,0,1-.039-1.166c1.635-5.611.6-10.78-2.409-15.694a62.782,62.782,0,0,1-3.642-6.708,6.635,6.635,0,0,1,1.714-7.845c4.353-3.961,9.379-4.135,14.639-2.317a12.079,12.079,0,0,1,7.1,6.566,12.758,12.758,0,0,1,.9,2.1c.709,2.654,1.8,4.906,4.443,6.3,1.472.776,1.758,3.109.848,5.01a39.074,39.074,0,0,1-3.6,6.582c-3.665,4.914-7.571,9.649-11.39,14.449a2.091,2.091,0,0,1-.7.6C288.174,251.554,286.6,252.252,284.951,252.995Zm8.118-19.778a12.819,12.819,0,0,0,1.213,2.979,3.034,3.034,0,0,0,2.131,1.242c.6-.037,1.467-.972,1.63-1.651.372-1.548.984-2.582,2.676-2.828a3.315,3.315,0,0,0,1.367-.821,1.763,1.763,0,0,0,0-3.037,5.261,5.261,0,0,0-1.776-.894c-1.248-.34-2.554-.477-3.792-.844-.777-.23-1.272-.014-1.526.626C294.308,229.719,293.7,231.479,293.069,233.217Zm1.281-12.424c-.809-1.251-1.538-2.5-2.406-3.644a1.5,1.5,0,0,0-1.343-.467,1.452,1.452,0,0,0-.659,1.266,20.867,20.867,0,0,0,1.61,3.851c.257.467,1.242,1.046,1.493.9C293.567,222.386,293.823,221.624,294.349,220.793Zm4.9-1.587a24.191,24.191,0,0,0-1.725-3.188c-.726-.973-1.9-.711-1.993.487a8,8,0,0,0,.646,3.555,2.194,2.194,0,0,0,1.851.877C298.439,220.9,298.762,219.94,299.249,219.206Z" transform="translate(-6.004 -0.194)"/><path class="c" d="M265.262,292.549c.663-1.127,1.289-2.312,2.05-3.4a1.466,1.466,0,0,1,1.237-.331,20.682,20.682,0,0,1,11.322,6.766c2.744,3.015,3.5,6.906,4.656,10.6.4,1.276.869,1.561,2.035,1.23a4.27,4.27,0,0,1,2.132-.033c-.27.362-.463.852-.821,1.063q-4.731,2.784-9.519,5.473c-.924.519-1.176-.219-1.338-.9-.456-1.916-.839-3.85-1.33-5.758a27.115,27.115,0,0,0-7.577-12.77A19.6,19.6,0,0,0,265.262,292.549Z" transform="translate(-4.506 -12.406)"/><path class="c" d="M270.893,278.413c-.631,1.315-.469,3.065-2.555,2.992a1.448,1.448,0,0,1-1.589-1.647h1.275c-.492-.669-.825-1.181-1.217-1.643a21.341,21.341,0,0,1-5.351-11.374c-.242-2.038.171-2.716,2.08-3.507a13.393,13.393,0,0,1,7.686-.352,83.377,83.377,0,0,1,8.565,2.15,2.039,2.039,0,0,1,1.427,2.748,1.944,1.944,0,0,1-2.523,1.427c-2.493-.524-4.974-1.14-7.4-1.895-.467-.145-.682-1.1-1.225-2.056a13.141,13.141,0,0,0-.2,2.712,10.264,10.264,0,0,0,2.812,5.542,28.6,28.6,0,0,1,2.483,2.816,2.442,2.442,0,0,1-.179,3.5l-.9-2.369-.253.062c0,.726.046,1.457-.012,2.18a1.419,1.419,0,0,1-1.6,1.442c-.665-.022-1.222-.183-1.088-1.125A5.534,5.534,0,0,0,270.893,278.413Z" transform="translate(-3.921 -8.425)"/><path class="c" d="M311.107,257.73c.147-1.329.425-2.579,1.618-2.848.747-.168,1.679.486,2.529.771l-.062.328c.394-.2.774-.438,1.183-.6,1-.4,1.725-.035,1.823,1.006.092.984.336,1.365,1.427,1s1.84.36,1.739,1.514a6.72,6.72,0,0,1-.257,1.18c-.854,3.081-1.55,3.508-4.8,3.013l1.4,1.661c-1.32,3.2-2.306,6.866-4.812,9.763-1.773,2.047-3.616,2.417-6.146.884a44.621,44.621,0,0,1-5.778-4.743,1.667,1.667,0,0,1-.385-1.1c-.047-1.244-.017-2.491-.017-3.7l6.471,3.34c-.059.312-.138.731-.217,1.149l.272.162a10.591,10.591,0,0,0,1.264-1.751c.61-1.339,1.129-2.724,1.607-4.117a2.569,2.569,0,0,0-.6-2.721c-1.331-1.516-1.257-1.873.632-2.423a21.448,21.448,0,0,1,4.184-.612c.333-.028.7.4,1.056.612a5.379,5.379,0,0,1-.737,1.019,20.791,20.791,0,0,0-1.857,1.606c1.614.385,3.788-1.051,3.738-2.42a2.78,2.78,0,0,0-1.308-1.726,4.168,4.168,0,0,0-1.948-.33C312.515,257.605,311.895,257.689,311.107,257.73Z" transform="translate(-9.849 -7.269)"/><path class="c" d="M259.431,298.13a63.747,63.747,0,0,1-3.664,7.335c-2.066,3.1-4.574,3.613-7.946,2.065-2.236-1.026-4.459-2.1-5.939-4.228a8.375,8.375,0,0,0-1.337-1.216c-.136,1.761-1.393,2.481-3.6,2.111a16.045,16.045,0,0,1,.626-1.83,12.875,12.875,0,0,1,4.5-4.7,2.039,2.039,0,0,1,2.9.3c1.13,1.148,2.3,2.256,3.386,3.448.619.681,1.227.784,1.83.164a35.311,35.311,0,0,0,3.2-3.574c1.074-1.457,1.527-1.679,3.087-.888a10.478,10.478,0,0,0,1.226.536C258.112,297.8,258.547,297.893,259.431,298.13Z" transform="translate(-0.219 -13.599)"/><path class="c" d="M249.324,262.282l.366-2.911c2.706,2.126,4.223.3,5.95-1.412a14.1,14.1,0,0,1,3.607-2.274c1.642-.834,2.226-1.64,2.129-3.487a6.666,6.666,0,0,0-2.628-5.2l3.169-1.3a6.737,6.737,0,0,1,0,.816c-.479,3.227.261,4.415,3.417,4.986a9.986,9.986,0,0,0,3.865-.006,15.4,15.4,0,0,0,3.35-1.686l.83,2.072c-1.158.11-2.151.251-3.148.292-2.783.115-3.844,1.276-3.6,4.093.068.792.286,1.572.448,2.426-1.051.306-1.686.1-1.962-1.068-.461-1.948-1.192-2.48-3.069-1.849a24.376,24.376,0,0,0-4.66,2.3,2.646,2.646,0,0,0-1.079,2.975c.4,2.066.812,4.129,1.276,6.182.091.4.382,1.011.675,1.073,1.441.3,1.533,1.588,1.954,2.307-1.023,1.744-2.028,3.309-2.884,4.952-1.3,2.5-1.1,3.4,1.063,5.467l-1.163.587c-.52-.636-.983-1.176-1.416-1.739a3.791,3.791,0,0,0-4.083-1.659c-.854.184-.877.081-1.19-1.247a13.193,13.193,0,0,0,2.826-.507c1.853-.762,4.06-4.758,3.693-6.722a58.441,58.441,0,0,0-1.561-6.384c-.668-2.177-1.753-2.626-3.918-1.891C250.9,261.7,250.239,261.953,249.324,262.282Z" transform="translate(-2.094 -5.883)"/><path class="c" d="M248.765,270.287q.042-.8.085-1.609c.151-2.858,1-3.717,3.886-3.959a1.544,1.544,0,0,1,1.9,1.253c.546,2.3,1.215,4.586,1.645,6.912.546,2.953-2.9,6.507-5.6,5.852a1.443,1.443,0,0,1-.921-.887c-.464-2.5-.833-5.013-1.232-7.522Z" transform="translate(-1.973 -8.76)"/><path class="c" d="M278.977,274.881l-2.223-2.578c1-.874,1.967-1.8,3.03-2.6a2.791,2.791,0,0,1,1.493-.351c2.128-.087,3.619-1.4,3.389-3.478-.444-4,.7-4.087,4.375-6.214a12.056,12.056,0,0,1,3.1-.81,3.186,3.186,0,0,0,1.387-.633L292,257.708a23.19,23.19,0,0,1,1.774-2.022,1.071,1.071,0,0,1,1.013.12,3.229,3.229,0,0,1,1.106,3.26,2.7,2.7,0,0,1-2.289,2.167c-.657.139-1.3.331-1.961.456a4.924,4.924,0,0,0-3.925,3.425C286.08,269.459,282.832,272.383,278.977,274.881Z" transform="translate(-6.246 -7.382)"/><path class="c" d="M277.113,283.857c1.843-.513,2.4-1.764,2.311-3.488-.053-1.051.465-1.321,1.308-.642a35.391,35.391,0,0,0,10.582,5.991c-1.218,1.393-2.269,2.62-3.359,3.811a.858.858,0,0,1-.71.153C284.834,289.1,278.445,286.311,277.113,283.857Z" transform="translate(-6.3 -10.977)"/><path class="c" d="M258.208,247.716a5.782,5.782,0,0,1,2.5,6.124,2.323,2.323,0,0,1-1.2,1.283,17.036,17.036,0,0,0-5.832,4.2,2.671,2.671,0,0,1-3.45-.19,1.048,1.048,0,0,1-.008-.844C251.872,254.04,254.236,250.315,258.208,247.716Z" transform="translate(-2.215 -6.188)"/><path class="c" d="M281.109,245.7l-.74-1.659-.443.105c.365,1.4.653,2.823,1.112,4.19.754,2.246,1.694,4.432,2.414,6.687a9.535,9.535,0,0,1,.065,5.983l-3.045-1.3c1.008-3.462-.95-6.237-1.864-9.234-.48-1.574-1.157-3.094-1.562-4.684a7.1,7.1,0,0,1,.118-2.38c.2-1.878,2.524-2.415,4.163-1.319a1,1,0,0,1,.348.771c-.058.928-.2,1.849-.31,2.772Z" transform="translate(-6.279 -5.251)"/><path class="c" d="M295.193,279.353c-.814,1.522-1.534,2.994-2.4,4.378a1.559,1.559,0,0,1-1.339.387,23.543,23.543,0,0,1-9.88-5.821c1.048-.9,2.059-1.849,3.166-2.667a1.613,1.613,0,0,1,1.3.053c1.477.633,2.894,1.413,4.381,2.018C291.867,278.289,293.367,278.728,295.193,279.353Z" transform="translate(-6.976 -10.396)"/><path class="c" d="M263.907,280.554c.2.71.328,1.085.418,1.466.18.761.362,1.523.5,2.292a2.475,2.475,0,0,1,.033,1.131,13.593,13.593,0,0,1-3.923,6.29,6,6,0,0,1-6.772.442,2.912,2.912,0,0,1-1.334-3.006,1.146,1.146,0,0,1,.847-.7c5.882-.123,7.567-1.3,9.727-6.881C263.494,281.353,263.623,281.134,263.907,280.554Z" transform="translate(-2.617 -11.159)"/><path class="c" d="M270.978,244.911s.136.015.269.025c2.632.2,2.823.4,2.9,3.084.045,1.571-.992,2.731-2.949,2.8a15.755,15.755,0,0,1-4.863-.539,2.912,2.912,0,0,1-1.424-4.437,1.6,1.6,0,0,1,1-.535c1.057-.18,2.126-.3,3.194-.39C269.679,244.869,270.264,244.911,270.978,244.911Z" transform="translate(-4.375 -5.761)"/><path class="c" d="M278.564,261.285c-2.4-.393-4.655-.743-6.894-1.15-.288-.053-.72-.384-.746-.625a15.617,15.617,0,0,1-.187-4.047c.09-.574,1.152-1.009,1.795-1.476.121-.088.349-.042.528-.04,1.249.02,2.5.044,3.748.066C277.539,256.339,279.253,258.426,278.564,261.285Z" transform="translate(-5.323 -7.129)"/><path class="c" d="M286.189,274.17c.877-1.185,1.413-2.611,2.366-2.99.872-.346,2.188.468,3.319.724,1.651.374,3.31.707,5.155,1.1q-.429,2.294-.9,4.782C292.465,277.4,289.517,275.557,286.189,274.17Z" transform="translate(-7.674 -9.727)"/><path class="c" d="M286.508,291.477c-1.417,1-2.58,1.871-3.8,2.644-.2.125-.767-.061-.979-.282a27.411,27.411,0,0,0-7.778-5.407,1.43,1.43,0,0,1-.569-1.079c-.029-1.07.6-1.568,1.619-1.942,1.051-.388,1.448.192,2,.775a19.109,19.109,0,0,0,7.374,4.5C284.958,290.91,285.542,291.12,286.508,291.477Z" transform="translate(-5.735 -11.875)"/><path class="c" d="M289.523,269.505c.147-.316.245-.557.368-.785.506-.941,1.018-1.879,1.5-2.763l6.035,1.27c.088,1.174.188,2.49.283,3.77C295.994,271.527,292.873,270.943,289.523,269.505Z" transform="translate(-8.179 -8.949)"/><path class="c" d="M265.974,260.484c-6.039,1.382-7.085,1.87-5.984,9.208a4.269,4.269,0,0,1-.451-.906c-.452-1.965-.987-3.921-1.242-5.914a3.05,3.05,0,0,1,.776-2.377,14.31,14.31,0,0,1,3.978-2.388C265.219,257.269,266.081,258.066,265.974,260.484Z" transform="translate(-3.449 -7.712)"/><path class="c" d="M260.384,285.06c-1.883-1.462-2.081-2.208-1.115-4.159.572-1.157,1.168-2.3,1.8-3.429a11.827,11.827,0,0,1,1.091-1.354c.569,1.169,1.542,2.208,1.371,3C263.063,281.3,262.429,283.549,260.384,285.06Z" transform="translate(-3.513 -10.488)"/><path class="c" d="M251.744,294.345c-3.2-.653-6.264-3.347-6.617-5.863,1.574.769,3.192,1.545,4.792,2.357a1.274,1.274,0,0,1,.458.583C250.852,292.4,251.3,293.394,251.744,294.345Z" transform="translate(-1.458 -12.359)"/><path class="c" d="M256.548,287.652c-2.349.9-3.337.353-4.923-2.733C254.027,284.164,255.406,284.929,256.548,287.652Z" transform="translate(-2.442 -11.778)"/><path class="c" d="M292.514,264.63l4.726-1.3c.166.9.3,1.623.507,2.746l-5.215-.829Z" transform="translate(-8.632 -8.551)"/><path class="c" d="M278.187,271.476l-2.6,2.474-1.419-1.9C275.606,270.345,276.07,270.275,278.187,271.476Z" transform="translate(-5.855 -9.661)"/><path class="c" d="M261.462,296.238c2.164-2.342,2.624-2.428,4.482-.855A4.775,4.775,0,0,1,261.462,296.238Z" transform="translate(-3.931 -13.243)"/><path class="c" d="M271.637,285.388c.014,2.311-.223,2.421-3.306,1.685C268.835,285.175,270.841,286.489,271.637,285.388Z" transform="translate(-4.971 -11.891)"/><path d="M296.264,236.634c.634-1.737,1.24-3.5,1.926-5.227.254-.64.749-.856,1.526-.626,1.238.367,2.544.5,3.792.844a5.26,5.26,0,0,1,1.776.894,1.763,1.763,0,0,1,0,3.037,3.315,3.315,0,0,1-1.367.821c-1.692.246-2.3,1.28-2.676,2.828-.163.679-1.033,1.613-1.63,1.651a3.033,3.033,0,0,1-2.131-1.242A12.818,12.818,0,0,1,296.264,236.634Zm7.7-3.44c-2.407-1.337-4.633-1.51-5.134-.339C300.5,232.972,301.983,234.363,303.959,233.194Z" transform="translate(-9.199 -3.611)"/><path d="M296.983,222.314c-.526.831-.782,1.593-1.306,1.9-.25.149-1.236-.431-1.493-.9a20.865,20.865,0,0,1-1.61-3.851,1.452,1.452,0,0,1,.659-1.266,1.5,1.5,0,0,1,1.343.467C295.446,219.813,296.175,221.063,296.983,222.314Z" transform="translate(-8.638 -1.715)"/><path d="M302.88,220.509c-.487.734-.81,1.69-1.222,1.73a2.194,2.194,0,0,1-1.851-.877,8,8,0,0,1-.646-3.555c.1-1.2,1.267-1.46,1.993-.487A24.191,24.191,0,0,1,302.88,220.509Z" transform="translate(-9.635 -1.497)"/><path class="c" d="M304.416,233.44c-1.976,1.169-3.463-.221-5.134-.339C299.783,231.931,302.009,232.1,304.416,233.44Z" transform="translate(-9.656 -3.858)"/></g><g transform="translate(-1913.21 1472.431) rotate(-3)"><path d="M99.878,254.426a12.508,12.508,0,0,1,2.216,1.38c.991.933.682,1.994-.547,2.6a16.342,16.342,0,0,0-1.81,1.158c-1.624,1.081-3.071,1.107-4.455-.255-2.433-2.391-3.031-4.548-1.158-7.414a13.544,13.544,0,0,1,19.008-4.078,2.752,2.752,0,0,0,.491.182,10.887,10.887,0,0,0,.041-6.379c-.881-3.039-1.846-6.066-3-9.009a17.858,17.858,0,0,1-1.569-8.836,1.852,1.852,0,0,0-.727-1.344,11.6,11.6,0,0,1-3.743-5.367,3.523,3.523,0,0,1,.131-2.583c.174-.332,1.576-.316,2.239-.033a29.74,29.74,0,0,1,4.368,2.39,7.494,7.494,0,0,1,1.429,1.465l7.1-1.63c.226-2.175.177-4.767,2.621-6.667a9.874,9.874,0,0,1,1.638,4.188,10.233,10.233,0,0,1-.042,2.725c-.275,2.3-.273,2.244,1.786,3.5,3.7,2.258,7.507,3.418,11.762,1.6,2.384-1.021,4.779-2.035,7.223-2.9a18.028,18.028,0,0,1,4.471-1.012c3.344-.273,5.582,1.447,6.46,4.71a15.283,15.283,0,0,1-.6,8.653c-3.383,10.932-11.738,15.734-22.166,17.954-1.543.329-3.125.486-4.749.731.706,1.764,1.56,3.52,2.1,5.368.536,1.831.757,3.755,1.127,5.692a5.568,5.568,0,0,0,5.665-1.586,3.08,3.08,0,0,1-2.446-2.082,2.525,2.525,0,0,1,.9-3.366c1.349-1.06,2.884-1.771,4.542-1.063,1.576.672,1.933,2.219,2.111,3.832.606,5.485-3.755,12.667-9.845,13.39-.418.049-.951.69-1.095,1.159a21.286,21.286,0,0,0-.464,2.84c-.188,1.156-.455,2.281,1.1,2.822.281.1.5.9.449,1.345a15.113,15.113,0,0,1-3.573,8.5c-1.823,2.092-3.713,4.126-5.506,6.111l7.787,11.659a21.457,21.457,0,0,1,3.006-.821c1.482-.2,2.3.656,1.858,2.068a10.111,10.111,0,0,1-1.794,3.539,24.081,24.081,0,0,1-11.366,7.061c-2.189.7-3.159.209-4.2-1.836-1.72-3.374-3.336-6.8-5.15-10.127a49.6,49.6,0,0,0-3.726-5.635,2.963,2.963,0,0,0-1.867-1c-2.1-.245-4.224-.248-6.324-.473a1.422,1.422,0,0,0-1.717,1.01A34.415,34.415,0,0,1,91.76,310.18c-2.69,2.4-4.719,2.667-7.507.339-2.717-2.269-5.222-4.791-7.884-7.261-.74.479-1.616,1.14-2.573,1.647-1.524.809-2.557.078-2.434-1.647a.52.52,0,0,1,.013-.143c1.534-3.96,3.107-7.911,6.719-10.522,1.393-1.008,2.241-.871,3.61.3,1.714,1.469,3.416,2.952,5.318,4.6l2.421-3.414c-.57-.289-.977-.5-1.386-.7-8.468-4.233-13.282-10.97-14.411-20.447-.806-6.773.15-13.425.685-20.131a28.753,28.753,0,0,0-.519-8.288c-.78-3.583-2.82-6.374-7.234-7.081a12.883,12.883,0,0,1,9.575-.271,11.907,11.907,0,0,1,7.36,7.419c1.228,3.356,1.22,6.876,1.694,10.338.462,3.373,1.008,6.747,1.779,10.059a10.275,10.275,0,0,0,4.522,6.3,4.567,4.567,0,0,0,4.781.437,25.161,25.161,0,0,0,13.073-13.766,1.62,1.62,0,0,0-.072-1.3C107.275,253.714,102.185,252.666,99.878,254.426Zm5.489-39.135c1,4.662,3.966,6.975,8.167,8.1l-.272.485-3.17-.361a14.788,14.788,0,0,0,1.135,7.412c.808,1.952,1.67,3.888,2.34,5.888,1.134,3.383,2.189,6.827,1.387,10.446a3.182,3.182,0,0,0,.8,3.22,16.369,16.369,0,0,1,1.691,2.695l-.413.236c-.756-.86-1.489-1.739-2.27-2.576-2.005-2.149-4.259-3.9-7.289-4.322-4.4-.611-7.991,1.245-11.25,3.864-3.123,2.51-2.8,5.3-.033,8.131,1.095,1.123,2.022,1.016,3.248-.173l-.669-.717,2.769-.411c-.838-1.873-2.457-1.659-3.854-1.873.979-2.463,5.595-3.548,8.975-2.181,3.2,1.295,5.916,4.69,5.164,6.572l-1.34-1.444c-2.268,6.189-6.753,10.1-12.086,13.4-4.183,2.583-7.791,1.6-10.52-2.185A18.243,18.243,0,0,1,85,262.528c-.8-4.041-1.025-8.195-1.525-12.3A17.218,17.218,0,0,0,80.81,242.1c-2.395-3.392-7.206-5.426-10.763-4.467,4.065,2.508,5.153,6.476,5.4,10.768a44.376,44.376,0,0,1-.213,6.465c-.5,5.6-1.141,11.189-.441,16.834.544,4.387,1.311,8.628,4.184,12.228,2.473,3.1,5,6.03,8.648,7.9a39.5,39.5,0,0,0,13.792,4.34c2.007.221,4.024.367,6.026.547L98.4,286.738c1.394.971,2.778,2.02,4.12,3.121a49.337,49.337,0,0,1,13,15.633c1.44,2.818,2.774,5.69,4.163,8.533.868,1.778,1.263,1.962,3.173,1.328,1.047-.348,2.071-.774,3.08-1.222a20.278,20.278,0,0,0,7.983-6.012,8.865,8.865,0,0,0,.906-2.89,17.9,17.9,0,0,0-2.927.589,23.91,23.91,0,0,0-3.042,1.687c1.025-1.746,1.063-1.768.221-3.2-2.63-4.48-5.38-8.839-9.267-12.425-4.145-3.826-8.341-7.545-13.287-10.313a29.5,29.5,0,0,0-2.84-1.234c3.482-.216,5.947,2.094,8.737,3.469,3.275-5.044,5.677-10.223,6.088-16.257a51.489,51.489,0,0,1,1.827-9.6,6.967,6.967,0,0,1,5.475-5.187,19.476,19.476,0,0,1,2.428-.212,10.935,10.935,0,0,0-1.866-2.412,8.707,8.707,0,0,0-2.58-.817,8.293,8.293,0,0,1,2.213-.15,33.421,33.421,0,0,0,22.025-8.379c4.39-3.9,6.449-9.092,6.937-14.791.442-5.164-2.657-7.589-7.7-6.45a22.61,22.61,0,0,0-2.873.938c-1.757.652-3.5,1.35-5.247,2.017-3.333,1.268-6.763,1.755-10.15.47a30.374,30.374,0,0,1-6.374-3.274c-2.912-2-5.713-1.819-8.768-.36l.781,2.571C112.379,218.644,110.058,215.608,105.367,215.29Zm24.019,60.424c.147-1.068.3-2.1.43-3.136a46.008,46.008,0,0,0-.656-17.19c-.55-2.178-1.942-2.773-4.058-1.9a6.749,6.749,0,0,0-4.356,5.02c-.756,3.811-1.465,7.641-1.94,11.494a24.87,24.87,0,0,1-2.91,9.136c-.814,1.473-1.643,2.939-2.386,4.447a1.34,1.34,0,0,0,.063,1.219c2.815,2.445,5.682,4.829,8.858,7.5a83.838,83.838,0,0,0,6.133-7.016c1.212-1.705,1.767-3.893,2.52-5.9.356-.949-.052-1.628-1.079-1.979-1.974-.675-3.921-1.429-5.878-2.151l.034-.317ZM75.691,299.833c.737.881,1.2,1.478,1.707,2.032,1.912,2.088,3.765,4.237,5.79,6.21a19.476,19.476,0,0,0,3.639,2.535,2.285,2.285,0,0,0,3.022-.481c1.969-2.093,4.041-4.114,5.789-6.381a67.315,67.315,0,0,0,3.9-6.315l-9.216-2.543c-1.538,2.128-3.259,4.561-6.7,5.553l2.546-2.051c-1.715-1.668-3.372-3.2-4.925-4.826a1.437,1.437,0,0,0-2.308-.119c-3.059,2.43-4.714,5.766-6.115,9.271a3.621,3.621,0,0,0-.019,1.233C75.3,303.332,75.977,302.464,75.691,299.833Zm62.815-41.581c-.762-.493-1.128-.906-1.49-.9-.258,0-.512.564-.768.875a10.5,10.5,0,0,0,1.3.545,15.334,15.334,0,0,0,1.6.276c-1.784,2.972-4.543,3.608-7.56,3.751v6.089c.139.057.229.129.313.123,6.463-.425,11.3-8.788,8.37-14.557a1.831,1.831,0,0,0-1.564-.781,7.324,7.324,0,0,0-2.46,1.357,3.32,3.32,0,0,0-.729,1.164c1.226.216,2.213.362,3.171.619A9.973,9.973,0,0,1,138.507,258.252Zm-16.251-46.219c-1.8,2.717-1.566,5.47.474,6.067A7.082,7.082,0,0,0,122.256,212.033Z" transform="translate(0 0)"/><path class="c" d="M106.2,216.567c4.691.317,7.012,3.354,9.276,6.618l-.781-2.571c3.055-1.459,5.856-1.637,8.768.36a30.374,30.374,0,0,0,6.374,3.274c3.387,1.285,6.817.8,10.15-.47,1.751-.667,3.49-1.365,5.247-2.017a22.613,22.613,0,0,1,2.873-.938c5.04-1.139,8.139,1.286,7.7,6.45-.488,5.7-2.547,10.889-6.937,14.791a33.421,33.421,0,0,1-22.025,8.379,8.293,8.293,0,0,0-2.213.15,8.708,8.708,0,0,1,2.58.817,10.935,10.935,0,0,1,1.866,2.412,19.47,19.47,0,0,0-2.428.212,6.967,6.967,0,0,0-5.475,5.187,51.489,51.489,0,0,0-1.827,9.6c-.412,6.034-2.814,11.212-6.088,16.257-2.79-1.375-5.255-3.685-8.737-3.469a29.5,29.5,0,0,1,2.84,1.234c4.945,2.769,9.141,6.488,13.287,10.313,3.887,3.586,6.637,7.944,9.267,12.425.842,1.433.8,1.456-.221,3.2a23.91,23.91,0,0,1,3.042-1.687,17.9,17.9,0,0,1,2.927-.589,8.865,8.865,0,0,1-.906,2.89,20.278,20.278,0,0,1-7.983,6.012c-1.009.448-2.032.874-3.08,1.222-1.91.633-2.3.449-3.173-1.328-1.39-2.844-2.724-5.715-4.163-8.533a49.337,49.337,0,0,0-13-15.633c-1.341-1.1-2.726-2.151-4.12-3.121l9.042,9.974c-2-.18-4.019-.326-6.026-.547a39.5,39.5,0,0,1-13.792-4.34c-3.643-1.867-6.175-4.8-8.648-7.9-2.873-3.6-3.64-7.841-4.184-12.228-.7-5.645-.055-11.23.441-16.834a44.376,44.376,0,0,0,.213-6.465c-.249-4.292-1.337-8.259-5.4-10.768,3.557-.959,8.368,1.075,10.763,4.467a17.218,17.218,0,0,1,2.667,8.132c.5,4.1.725,8.256,1.525,12.3a18.243,18.243,0,0,0,2.879,6.966c2.728,3.786,6.336,4.768,10.52,2.185,5.333-3.292,9.818-7.206,12.086-13.4l1.34,1.444c.752-1.883-1.962-5.278-5.164-6.572-3.381-1.367-8-.282-8.975,2.181,1.4.214,3.016,0,3.854,1.873l-2.769.411.669.717c-1.226,1.189-2.153,1.3-3.248.173-2.764-2.833-3.09-5.621.033-8.131,3.258-2.62,6.852-4.475,11.25-3.864,3.03.421,5.284,2.173,7.289,4.322.781.837,1.514,1.717,2.27,2.576l.413-.236a16.369,16.369,0,0,0-1.691-2.695,3.182,3.182,0,0,1-.8-3.22c.8-3.619-.253-7.064-1.387-10.446-.67-2-1.532-3.936-2.34-5.888a14.788,14.788,0,0,1-1.135-7.412l3.17.361.272-.485C110.17,223.542,107.2,221.229,106.2,216.567Zm45.183,12.684c.875-.364,2.108-.484,2.555-1.139,1.171-1.719.615-3.594-.263-5.33a3.041,3.041,0,0,0-3.668-1.612,18.6,18.6,0,0,0-4.634,1.84c-1.582.888-1.649,2.24-.416,3.589C146.654,228.448,148.877,228.9,151.388,229.251Zm-32.118-3.795a4.988,4.988,0,0,0,2.016,4.294c.436.365,1.369.84,1.54.684a2.716,2.716,0,0,0,.892-1.783,5.877,5.877,0,0,0-2.355-4.74c-1.146-.881-1.812-.575-2.04.868A6.285,6.285,0,0,0,119.269,225.456Zm23.282,4.106-.228-.292c-.352.31-.916.561-1.019.939a14.019,14.019,0,0,0-.729,3.884,2.818,2.818,0,0,0,4.268,2.213,5.807,5.807,0,0,0,2.555-3.523c.1-.285-.209-.715-.329-1.077-.3.192-.694.317-.868.586a10.522,10.522,0,0,1-1.2,2.087c-.513.474-1.591.971-2.029.735a2.68,2.68,0,0,1-1.056-2.047A17.923,17.923,0,0,1,142.551,229.562Zm-14.344-2.355a5.511,5.511,0,0,0-2.171-4.025c-.937-.592-1.423-.218-1.635.737a4.822,4.822,0,0,0,2.148,4.242C127.52,228.595,128.185,228.212,128.208,227.207Z" transform="translate(-0.837 -1.277)"/><path class="c" d="M140.688,286.117l-5.225-.777-.034.317c1.958.722,3.9,1.476,5.878,2.151,1.028.351,1.436,1.03,1.079,1.979-.753,2.007-1.308,4.2-2.52,5.9a83.837,83.837,0,0,1-6.133,7.016c-3.175-2.67-6.043-5.054-8.858-7.5a1.34,1.34,0,0,1-.063-1.219c.743-1.508,1.572-2.974,2.386-4.447a24.87,24.87,0,0,0,2.91-9.136c.474-3.853,1.183-7.683,1.94-11.494a6.749,6.749,0,0,1,4.356-5.02c2.115-.872,3.507-.277,4.058,1.9a46.007,46.007,0,0,1,.656,17.19C140.987,284.017,140.834,285.049,140.688,286.117Z" transform="translate(-11.301 -10.403)"/><path class="c" d="M77.181,319.849c.286,2.631-.387,3.5-2.893,4.119a3.621,3.621,0,0,1,.019-1.233c1.4-3.5,3.055-6.842,6.115-9.271a1.437,1.437,0,0,1,2.308.119c1.553,1.629,3.21,3.158,4.925,4.826L85.11,320.46c3.445-.992,5.166-3.424,6.7-5.553l9.216,2.543a67.315,67.315,0,0,1-3.9,6.315c-1.748,2.267-3.82,4.288-5.789,6.381a2.285,2.285,0,0,1-3.022.481,19.476,19.476,0,0,1-3.639-2.535c-2.025-1.973-3.878-4.122-5.79-6.21C78.38,321.327,77.918,320.731,77.181,319.849Z" transform="translate(-1.49 -20.016)"/><path class="c" d="M154.2,268.788a9.972,9.972,0,0,0,.18-1.444c-.958-.257-1.945-.4-3.171-.619a3.32,3.32,0,0,1,.729-1.164,7.324,7.324,0,0,1,2.46-1.357,1.831,1.831,0,0,1,1.564.781c2.93,5.769-1.908,14.132-8.37,14.557-.085.006-.174-.066-.313-.123v-6.089c3.018-.143,5.776-.779,7.56-3.751a15.333,15.333,0,0,1-1.6-.276,10.5,10.5,0,0,1-1.3-.545c.256-.311.511-.873.768-.875C153.071,267.882,153.436,268.295,154.2,268.788Z" transform="translate(-15.692 -10.536)"/><path class="c" d="M135.4,212.523a7.082,7.082,0,0,1,.474,6.067C133.835,217.993,133.6,215.24,135.4,212.523Z" transform="translate(-13.146 -0.49)"/><path d="M169.062,230.334c-2.511-.353-4.733-.8-6.426-2.653-1.233-1.348-1.166-2.7.416-3.589a18.6,18.6,0,0,1,4.634-1.84,3.041,3.041,0,0,1,3.668,1.612c.878,1.737,1.435,3.611.263,5.33C171.17,229.85,169.937,229.97,169.062,230.334Z" transform="translate(-18.512 -2.359)"/><path d="M130.947,227.11a6.287,6.287,0,0,1,.053-.677c.227-1.444.893-1.75,2.04-.868a5.877,5.877,0,0,1,2.355,4.74,2.716,2.716,0,0,1-.892,1.783c-.171.156-1.1-.319-1.54-.684A4.988,4.988,0,0,1,130.947,227.11Z" transform="translate(-12.515 -2.93)"/><path d="M159.374,232.629a17.923,17.923,0,0,0-.636,3.5,2.68,2.68,0,0,0,1.056,2.047c.438.237,1.516-.26,2.029-.735a10.522,10.522,0,0,0,1.2-2.087c.175-.269.572-.395.868-.586.12.363.429.792.329,1.077a5.807,5.807,0,0,1-2.555,3.523,2.818,2.818,0,0,1-4.268-2.213,14.019,14.019,0,0,1,.729-3.884c.1-.378.667-.629,1.019-.939Z" transform="translate(-17.659 -4.343)"/><path d="M141.116,228.735c-.023,1.005-.688,1.388-1.658.955a4.822,4.822,0,0,1-2.148-4.242c.212-.955.7-1.329,1.635-.737A5.511,5.511,0,0,1,141.116,228.735Z" transform="translate(-13.745 -2.805)"/></g><line class="b" x2="8" y2="1" transform="translate(-1653.286 1740.046) rotate(-2)"/><line class="b" x2="25" y2="3" transform="translate(-1641.223 1741.626) rotate(-2)"/></g></svg>